/vscmnt/brussel_pixiu_data/_data_brussel/112/vsc11236/PredSimResults/SUBJ06mtu3D/worker9.mot
version=1
nRows=4
nColumns=50
inDegrees=yes
endheader
                time	         pelvis_tilt	         pelvis_list	     pelvis_rotation	           pelvis_tx	           pelvis_ty	           pelvis_tz	       hip_flexion_r	     hip_adduction_r	      hip_rotation_r	        knee_angle_r	       ankle_angle_r	         mtp_angle_r	       hip_flexion_l	     hip_adduction_l	      hip_rotation_l	        knee_angle_l	       ankle_angle_l	         mtp_angle_l	    lumbar_extension	      lumbar_bending	     lumbar_rotation	 ercspn_r/activation	 intobl_r/activation	 extobl_r/activation	    abd_r/activation	    add_r/activation	hamstrings_r/activation	bifemsh_r/activation	glut_max_r/activation	iliopsoas_r/activation	rect_fem_r/activation	  vasti_r/activation	gastroc_r/activation	 soleus_r/activation	tib_ant_r/activation	 ercspn_l/activation	 intobl_l/activation	 extobl_l/activation	    abd_l/activation	    add_l/activation	hamstrings_l/activation	bifemsh_l/activation	glut_max_l/activation	iliopsoas_l/activation	rect_fem_l/activation	  vasti_l/activation	gastroc_l/activation	 soleus_l/activation	tib_ant_l/activation	
          0.00000000	         -5.79370706	         -2.02743414	          7.58202938	          0.00000000	          0.92979182	         -0.01433314	         30.98584877	         -0.69216267	         -3.74093489	         -4.95592932	          4.61382527	          0.21458678	        -11.71859138	         -1.73462901	          3.48073675	         -8.08937403	         10.46071854	         28.94522874	         -5.45347756	         -0.17747919	          2.09720472	          0.12915623	          0.18730016	          0.01293846	          0.01211880	          0.08987365	          0.15517763	          0.26231733	          0.01490283	          0.15521211	          0.00999999	          0.00999999	          0.02987997	          0.00999999	          0.41022073	          0.06438678	          0.00999999	          0.00999999	          0.05638199	          0.01000002	          0.01751668	          0.13265499	          0.04652435	          0.39772147	          0.02613963	          0.01000000	          0.38420498	          0.33688083	          0.01889039	
          0.01271288	         -5.87658510	         -1.94847731	          7.61979271	          0.01733916	          0.92770292	         -0.01372650	         30.99538611	         -0.57397661	         -3.53327398	         -6.49837479	          4.17820733	          0.20831385	        -12.10055011	         -1.75531071	          3.04522301	         -9.17539223	          9.69669373	         30.91773564	         -5.12539679	          0.07388238	          1.75983173	          0.10657499	          0.19260862	          0.01067634	          0.00999999	          0.12561521	          0.13707810	          0.21645464	          0.06312749	          0.12807534	          0.01000000	          0.00999999	          0.02975664	          0.02156948	          0.41552400	          0.10123556	          0.00999999	          0.00999999	          0.04652435	          0.05096905	          0.01516111	          0.10946203	          0.03839019	          0.41463610	          0.02156947	          0.01558445	          0.35607494	          0.31603099	          0.01558766	
          0.02542576	         -5.94293140	         -1.87347586	          7.60207150	          0.03499439	          0.92588776	         -0.01302754	         30.85775453	         -0.46337003	         -3.31406668	         -8.03143145	          3.80017118	          0.19585939	        -12.35469019	         -1.77435975	          2.57279743	        -10.53649966	          8.76716084	         32.94756891	         -4.78629804	          0.34535878	          1.41950878	          0.10602546	          0.16218021	          0.00999999	          0.06097625	          0.11076595	          0.12276063	          0.17861043	          0.10233442	          0.10568307	          0.00999999	          0.00999999	          0.02455409	          0.01779834	          0.48780847	          0.09599237	          0.00999999	          0.00999999	          0.03839019	          0.04205779	          0.01543205	          0.09032405	          0.03167817	          0.42007669	          0.01779836	          0.02613967	          0.32489348	          0.28638978	          0.01286236	
          0.03813864	         -5.99473303	         -1.79285108	          7.52765626	          0.05270400	          0.92455374	         -0.01222503	         30.63247939	         -0.34476579	         -3.14047888	         -9.39225710	          3.23088357	          0.17232519	        -12.39356967	         -1.77975446	          2.06807648	        -12.28439821	          7.62881943	         35.01303438	         -4.46646432	          0.62530023	          1.08485130	          0.11756985	          0.13382516	          0.00999999	          0.11826473	          0.16026209	          0.10556599	          0.14738278	          0.14473914	          0.08720579	          0.00999999	          0.00999999	          0.02026113	          0.01468654	          0.52190501	          0.13100051	          0.00999999	          0.00999999	          0.03167817	          0.05719150	          0.01938462	          0.07453210	          0.02613967	          0.42029003	          0.01468658	          0.02156949	          0.27099295	          0.23631834	          0.01061355	
